<mxfile host="app.diagrams.net" modified="2024-05-29T19:48:50.987Z" agent="Mozilla/5.0 (Macintosh; Intel Mac OS X 10_15_7) AppleWebKit/537.36 (KHTML, like Gecko) Chrome/124.0.0.0 Safari/537.36" etag="GW2SoILCZfFkDLSXU3P6" version="24.4.10" type="github">
  <diagram id="C5RBs43oDa-KdzZeNtuy" name="Page-1">
    <mxGraphModel dx="1097" dy="860" grid="1" gridSize="10" guides="1" tooltips="1" connect="1" arrows="1" fold="1" page="1" pageScale="1" pageWidth="827" pageHeight="1169" math="0" shadow="0">
      <root>
        <mxCell id="WIyWlLk6GJQsqaUBKTNV-0" />
        <mxCell id="WIyWlLk6GJQsqaUBKTNV-1" parent="WIyWlLk6GJQsqaUBKTNV-0" />
        <mxCell id="ZDVo7gOqun7I2lf2yOAh-0" value="" style="rounded=0;html=1;jettySize=auto;orthogonalLoop=1;fontSize=14;endArrow=open;endFill=0;endSize=8;strokeWidth=1;shadow=0;labelBackgroundColor=none;edgeStyle=orthogonalEdgeStyle;entryX=0.5;entryY=0;entryDx=0;entryDy=0;fontFamily=Times New Roman;" edge="1" parent="WIyWlLk6GJQsqaUBKTNV-1" source="ZDVo7gOqun7I2lf2yOAh-1" target="ZDVo7gOqun7I2lf2yOAh-3">
          <mxGeometry relative="1" as="geometry">
            <mxPoint x="440" y="140" as="targetPoint" />
          </mxGeometry>
        </mxCell>
        <mxCell id="ZDVo7gOqun7I2lf2yOAh-1" value="Начало" style="rounded=1;whiteSpace=wrap;html=1;fontSize=14;glass=0;strokeWidth=1;shadow=0;arcSize=50;fontFamily=Times New Roman;" vertex="1" parent="WIyWlLk6GJQsqaUBKTNV-1">
          <mxGeometry x="380" y="50" width="120" height="40" as="geometry" />
        </mxCell>
        <mxCell id="ZDVo7gOqun7I2lf2yOAh-2" style="edgeStyle=orthogonalEdgeStyle;rounded=0;orthogonalLoop=1;jettySize=auto;html=1;entryX=0.5;entryY=0;entryDx=0;entryDy=0;" edge="1" parent="WIyWlLk6GJQsqaUBKTNV-1" source="ZDVo7gOqun7I2lf2yOAh-3" target="ZDVo7gOqun7I2lf2yOAh-10">
          <mxGeometry relative="1" as="geometry" />
        </mxCell>
        <mxCell id="ZDVo7gOqun7I2lf2yOAh-3" value="Загрузка&amp;nbsp;&lt;div style=&quot;font-size: 14px;&quot;&gt;матрицы&amp;nbsp;&lt;/div&gt;&lt;div style=&quot;font-size: 14px;&quot;&gt;изображения&lt;/div&gt;" style="shape=parallelogram;perimeter=parallelogramPerimeter;whiteSpace=wrap;html=1;fixedSize=1;fontFamily=Times New Roman;fontSize=14;" vertex="1" parent="WIyWlLk6GJQsqaUBKTNV-1">
          <mxGeometry x="380" y="120" width="120" height="60" as="geometry" />
        </mxCell>
        <mxCell id="ZDVo7gOqun7I2lf2yOAh-6" value="" style="edgeStyle=orthogonalEdgeStyle;rounded=0;orthogonalLoop=1;jettySize=auto;html=1;entryX=0.5;entryY=0;entryDx=0;entryDy=0;" edge="1" parent="WIyWlLk6GJQsqaUBKTNV-1" source="ZDVo7gOqun7I2lf2yOAh-7" target="ZDVo7gOqun7I2lf2yOAh-12">
          <mxGeometry relative="1" as="geometry">
            <mxPoint x="440" y="495" as="targetPoint" />
          </mxGeometry>
        </mxCell>
        <mxCell id="ZDVo7gOqun7I2lf2yOAh-7" value="Вычитание гауссовского размытия из исходного изображения" style="whiteSpace=wrap;html=1;fontSize=14;fontFamily=Times New Roman;rounded=0;" vertex="1" parent="WIyWlLk6GJQsqaUBKTNV-1">
          <mxGeometry x="360" y="390" width="160" height="60" as="geometry" />
        </mxCell>
        <mxCell id="ZDVo7gOqun7I2lf2yOAh-8" value="Конец" style="rounded=1;whiteSpace=wrap;html=1;arcSize=50;fontFamily=Times New Roman;fontSize=14;" vertex="1" parent="WIyWlLk6GJQsqaUBKTNV-1">
          <mxGeometry x="380" y="600" width="120" height="60" as="geometry" />
        </mxCell>
        <mxCell id="ZDVo7gOqun7I2lf2yOAh-21" value="" style="edgeStyle=orthogonalEdgeStyle;rounded=0;orthogonalLoop=1;jettySize=auto;html=1;" edge="1" parent="WIyWlLk6GJQsqaUBKTNV-1" source="ZDVo7gOqun7I2lf2yOAh-10" target="ZDVo7gOqun7I2lf2yOAh-20">
          <mxGeometry relative="1" as="geometry" />
        </mxCell>
        <mxCell id="ZDVo7gOqun7I2lf2yOAh-10" value="Конвертация изображения в&amp;nbsp;&lt;div&gt;черно-белое&lt;/div&gt;" style="rounded=0;whiteSpace=wrap;html=1;" vertex="1" parent="WIyWlLk6GJQsqaUBKTNV-1">
          <mxGeometry x="370" y="210" width="140" height="60" as="geometry" />
        </mxCell>
        <mxCell id="ZDVo7gOqun7I2lf2yOAh-11" style="edgeStyle=orthogonalEdgeStyle;rounded=0;orthogonalLoop=1;jettySize=auto;html=1;entryX=0.5;entryY=0;entryDx=0;entryDy=0;" edge="1" parent="WIyWlLk6GJQsqaUBKTNV-1" source="ZDVo7gOqun7I2lf2yOAh-12" target="ZDVo7gOqun7I2lf2yOAh-8">
          <mxGeometry relative="1" as="geometry" />
        </mxCell>
        <mxCell id="ZDVo7gOqun7I2lf2yOAh-12" value="Запись результирующей матрицы в изображение" style="whiteSpace=wrap;html=1;fontSize=14;fontFamily=Times New Roman;rounded=0;" vertex="1" parent="WIyWlLk6GJQsqaUBKTNV-1">
          <mxGeometry x="365" y="500" width="150" height="60" as="geometry" />
        </mxCell>
        <mxCell id="ZDVo7gOqun7I2lf2yOAh-22" style="edgeStyle=orthogonalEdgeStyle;rounded=0;orthogonalLoop=1;jettySize=auto;html=1;entryX=0.5;entryY=0;entryDx=0;entryDy=0;" edge="1" parent="WIyWlLk6GJQsqaUBKTNV-1" source="ZDVo7gOqun7I2lf2yOAh-20" target="ZDVo7gOqun7I2lf2yOAh-7">
          <mxGeometry relative="1" as="geometry" />
        </mxCell>
        <mxCell id="ZDVo7gOqun7I2lf2yOAh-20" value="Рассчет гауссовского размытия&amp;nbsp;&lt;div&gt;изображения&lt;/div&gt;" style="whiteSpace=wrap;html=1;rounded=0;" vertex="1" parent="WIyWlLk6GJQsqaUBKTNV-1">
          <mxGeometry x="370" y="300" width="140" height="60" as="geometry" />
        </mxCell>
      </root>
    </mxGraphModel>
  </diagram>
</mxfile>
